PathFileType	4	(X/Y/Z)	/Users/niels/Desktop/University/Third Semester/Perception and Action/Exam/Gymnastics Motion Tracking/Code for Gym Tracking/Analyzed Data/Webcam_Backflip/id3_4_trajectory_Sports2D/id3_4_trajectory_Sports2D_px_person00.trc
DataRate	CameraRate	NumFrames	NumMarkers	Units	OrigDataRate	OrigDataStartFrame	OrigNumFrames
29.810126582278482	29.810126582278482	11	22	m	29.810126582278482	118	158
Frame#	Time	Hip			RHip			RKnee			RAnkle			RBigToe			RSmallToe			RHeel			LHip			LKnee			LAnkle			LBigToe			LSmallToe			LHeel			Neck			Head			Nose			RShoulder			RElbow			RWrist			LShoulder			LElbow			LWrist		
		X1	Y1	Z1	X2	Y2	Z2	X3	Y3	Z3	X4	Y4	Z4	X5	Y5	Z5	X6	Y6	Z6	X7	Y7	Z7	X8	Y8	Z8	X9	Y9	Z9	X10	Y10	Z10	X11	Y11	Z11	X12	Y12	Z12	X13	Y13	Z13	X14	Y14	Z14	X15	Y15	Z15	X16	Y16	Z16	X17	Y17	Z17	X18	Y18	Z18	X19	Y19	Z19	X20	Y20	Z20	X21	Y21	Z21	X22	Y22	Z22
118	3.9583864118895966	0.8944141646157765	-0.577491981337986	0.0	0.8877996614794991	-0.5748481524800642	0.0	0.8941489023515135	-0.695956448310977	0.0	0.8726455448424173	-0.8105689422047108	0.0	0.9122415536332933	-0.8168839055952534	0.0	0.8980305667030709	-0.8231703206011953	0.0	0.8630894601867305	-0.8211865350450781	0.0	0.906611852907281	-0.5748345713185059	0.0	0.96710394434003	-0.6534574956835114	0.0	0.9753733441579479	-0.7600168476114066	0.0	1.0154388656061328	-0.7681304149047578	0.0	1.0116624180553289	-0.7646508408459949	0.0	0.968597556859686	-0.7776396039828809	0.0	0.9357554556005403	-0.42764042578779776	0.0	0.9773971041615866	-0.3636709505228078	0.0	0.9767864859677236	-0.40968177279755347	0.0	0.9299743458042006	-0.44243346412211915	0.0	0.9673512940942566	-0.478203615939035	0.0	1.0358374161615986	-0.4575345062648054	0.0	0.9196348005145087	-0.4402067032899004	0.0	0.9512977899077559	-0.4839181122172661	0.0	0.9862029030880526	-0.49214349271495444	0.0
119	3.991932059447983	0.8992364327944598	-0.5714138227078216	0.0	0.892641153104116	-0.5683727723711045	0.0	0.8990850661747943	-0.6890265430995215	0.0	0.8732869948878574	-0.8032058033811866	0.0	0.9121207160137109	-0.812923674288982	0.0	0.8994479728431952	-0.8184715340250994	0.0	0.8626427362554547	-0.8146407966774549	0.0	0.9117022437123278	-0.5686237371467256	0.0	0.9726706851834475	-0.6462889440188293	0.0	0.9731252027869655	-0.7548671066925648	0.0	1.0131779164474861	-0.766053172542241	0.0	1.0090886611376555	-0.7622777233159553	0.0	0.9654008287935919	-0.7718940170231966	0.0	0.9373116568999214	-0.4201121084392019	0.0	0.9804691186058319	-0.3568649154667895	0.0	0.9786118114231476	-0.4025380099385883	0.0	0.9304460703032517	-0.43452596802136695	0.0	0.9552571905383879	-0.47713949300663605	0.0	1.0245712473224462	-0.4613262578267524	0.0	0.9213061157430044	-0.4330891259543473	0.0	0.9382621496234341	-0.48415194094790653	0.0	0.9673789875474081	-0.5040520635698553	0.0
120	4.025477707006369	0.9051588875731549	-0.5649696527382728	0.0	0.8986659998939751	-0.5615972655783125	0.0	0.9063898761425279	-0.6815189381124851	0.0	0.87435993367438	-0.7946701396015018	0.0	0.9130505691920229	-0.807399446950795	0.0	0.9015348820770007	-0.8122527185328502	0.0	0.8626194822787404	-0.8066645838487108	0.0	0.9172540928612036	-0.5619892232323771	0.0	0.9766122614521366	-0.6413909140820901	0.0	0.9695837698692649	-0.7513342676481843	0.0	1.010012820944428	-0.7645997344583693	0.0	1.00513008640122	-0.7607558939936068	0.0	0.9610642776628349	-0.7675971300322239	0.0	0.9388411043806668	-0.41220692383717017	0.0	0.9829404544748065	-0.3497078991203122	0.0	0.9804590087531533	-0.39526511523286434	0.0	0.9308470711078847	-0.4264657631214414	0.0	0.9425868909489251	-0.47567275087756333	0.0	1.0126682928521453	-0.4669950062104672	0.0	0.9231709895920052	-0.425783309858558	0.0	0.9269335907797177	-0.48347872336610315	0.0	0.9557503368661118	-0.5107216648957167	0.0
121	4.059023354564756	0.9119330540224279	-0.5587336232358522	0.0	0.9055357013836998	-0.5552628030232414	0.0	0.9161747710983645	-0.6741138303619949	0.0	0.876096753796275	-0.7855797544139244	0.0	0.9147509371951114	-0.8009514766350339	0.0	0.9038959452319923	-0.8051533595111929	0.0	0.863383374246092	-0.7977148530397906	0.0	0.9230431958822661	-0.5556380850946279	0.0	0.9787061319933165	-0.6390851908125651	0.0	0.9655294262945816	-0.7497417941413764	0.0	1.0067260216521103	-0.7639259758803847	0.0	1.0006288025617966	-0.7602334941437431	0.0	0.9565478394771942	-0.765092981055687	0.0	0.9403635967837297	-0.4048198342985683	0.0	0.9846875641605446	-0.3430469202848194	0.0	0.9822467327424571	-0.3886478835397477	0.0	0.9311159705712408	-0.4191683857487535	0.0	0.9301195432995489	-0.47414877640241926	0.0	1.000273440336711	-0.4747006154345687	0.0	0.9254698821511083	-0.4191002861380553	0.0	0.9186189054853741	-0.48209765799424753	0.0	0.9519498208113857	-0.5122056274300961	0.0
122	4.092569002123142	0.9191912863921619	-0.5533529144763741	0.0	0.9128995410617895	-0.5500988001189443	0.0	0.9281640352733213	-0.6674822865962373	0.0	0.8789358096805558	-0.7766744245637193	0.0	0.9173950666168903	-0.7944494331695042	0.0	0.9067957155776587	-0.7979976677767215	0.0	0.8654567217682018	-0.7885306417819026	0.0	0.9288579256778402	-0.5503158768082755	0.0	0.9789310817415355	-0.6392677931066857	0.0	0.9618845419687966	-0.7500944196000721	0.0	1.0040127054553756	-0.7642271375456714	0.0	0.9964346025125259	-0.7608852421771202	0.0	0.9528724327868114	-0.7644465064562189	0.0	0.9419246955629997	-0.3987725095167177	0.0	0.9857162495064337	-0.33759897361077557	0.0	0.9839545028099274	-0.38326865901147017	0.0	0.9312958927947471	-0.4134667369411277	0.0	0.9187035274081496	-0.4730625838072568	0.0	0.9875950208814027	-0.48430323766385064	0.0	0.9283239874107438	-0.413757050931348	0.0	0.9136676973461979	-0.4803272545107023	0.0	0.9531241677129237	-0.5118091252979968	0.0
123	4.126114649681528	0.9265135848456876	-0.5495134636607324	0.0	0.9204410227765808	-0.5467578824813262	0.0	0.9415625009925197	-0.6623296107824195	0.0	0.8834787811019552	-0.768864413816977	0.0	0.9215589026375488	-0.7889350499183313	0.0	0.9109525606633275	-0.7917923576733064	0.0	0.8694541216892208	-0.7802012142119833	0.0	0.9344948821960225	-0.5467305300908649	0.0	0.97746551562722	-0.6416007920413872	0.0	0.9592036017163823	-0.7521880626437375	0.0	1.0020797107653687	-0.7657921524838576	0.0	0.993019771796241	-0.762900449689279	0.0	0.9505749914846867	-0.7655972300653576	0.0	0.9435830396398152	-0.39468733734806544	0.0	0.9861030288508509	-0.3338663147922627	0.0	0.9855976032911667	-0.3795095906233752	0.0	0.9315835939433988	-0.4099866072356543	0.0	0.9091809092813715	-0.4729722736693596	0.0	0.97488533146633	-0.4954296690493995	0.0	0.9316379047520275	-0.4102977970664741	0.0	0.9117638620964199	-0.47870836220050783	0.0	0.9558203421717848	-0.5129065695314975	0.0
124	4.159660297239915	0.9335697787031647	-0.5478228846329183	0.0	0.927918733399831	-0.5457452258991623	0.0	0.9551739206238067	-0.6593158016669491	0.0	0.8902702651368003	-0.763211655210424	0.0	0.9279623777438442	-0.7854008346978696	0.0	0.9171662772399297	-0.787581280752957	0.0	0.8759030811617872	-0.7740778398487742	0.0	0.9398131508246529	-0.5454650487914655	0.0	0.9746936830212379	-0.6456706997929775	0.0	0.957426694842188	-0.7557041648865793	0.0	1.000698127731022	-0.7688933896281881	0.0	0.9904750525998846	-0.7663616094144424	0.0	0.9494513861942947	-0.768433939418922	0.0	0.9454208853819954	-0.39289861285934025	0.0	0.9859802497698684	-0.3321527322437027	0.0	0.9872296466983711	-0.3775911105254536	0.0	0.9322400740228842	-0.40903550406768846	0.0	0.9022412662550244	-0.4743245810917228	0.0	0.9624673660335226	-0.5075805786382453	0.0	0.9352351749129978	-0.40905740224182163	0.0	0.9125005062874747	-0.4780518673898817	0.0	0.9581278881551294	-0.5170040910415726	0.0
125	4.193205944798302	0.9401841072391972	-0.5486607993205003	0.0	0.9351911011992274	-0.5473254677539922	0.0	0.967777592770987	-0.6588157005130257	0.0	0.8995160262208072	-0.7607064202020621	0.0	0.9370973998048914	-0.7844847105269	0.0	0.9259672345512578	-0.7861484140636796	0.0	0.8850382768010908	-0.7714177698433304	0.0	0.944779524802037	-0.5468675938706391	0.0	0.9711913960654416	-0.6510478508702179	0.0	0.9561024307342627	-0.7603023194968899	0.0	0.9996194530246303	-0.7736407648783579	0.0	0.9888030014346657	-0.7712229914980855	0.0	0.9487762828334082	-0.77278161341618	0.0	0.9475106767286131	-0.39344134309891227	0.0	0.9855226658862339	-0.3325730190855263	0.0	0.9889249140009165	-0.3775726052984159	0.0	0.9334304952571321	-0.4105726880130199	0.0	0.898259282173951	-0.47733785155825725	0.0	0.9507899194500264	-0.5202839410544919	0.0	0.9390176554641437	-0.41015055868471867	0.0	0.9156209379000054	-0.4791851991160875	0.0	0.9598216001257001	-0.5240122389372541	0.0
126	4.226751592356687	0.9462383792427334	-0.5520208856272922	0.0	0.9421230643890044	-0.5513876245566883	0.0	0.9784891066559819	-0.6607395831156895	0.0	0.9108494273189202	-0.7618808531713718	0.0	0.9488478897478662	-0.7862659831549793	0.0	0.9372985885245069	-0.7877359785025176	0.0	0.8965811394211256	-0.7728811898442625	0.0	0.9494002119004672	-0.5508880191266958	0.0	0.9676892129715301	-0.657312943947961	0.0	0.9548239079220754	-0.7657040679396265	0.0	0.9988486834458838	-0.7799091912161606	0.0	0.9880910088197246	-0.7773473351196593	0.0	0.9478098892098796	-0.7783608203058139	0.0	0.949858242301805	-0.39608823023339157	0.0	0.9849710482755816	-0.33502368062359006	0.0	0.9907358778730848	-0.3793399865032198	0.0	0.9351382716455306	-0.4142671706476987	0.0	0.8972460856500746	-0.48199055849289785	0.0	0.9404034184929217	-0.5331757139621897	0.0	0.9429333661073231	-0.41343565188790576	0.0	0.9208179256393292	-0.4825708277091195	0.0	0.9615051725390236	-0.5331312157485751	0.0
127	4.260297239915074	0.9515737450379212	-0.5574247979884943	0.0	0.9484391544942565	-0.5573797956072151	0.0	0.9868935352619	-0.6645783251728057	0.0	0.9232202779436214	-0.7664847956999692	0.0	0.9622559949098839	-0.7903081704498077	0.0	0.9502985065322666	-0.7919694498723504	0.0	0.9095378038477248	-0.7781697061776088	0.0	0.9536423868537743	-0.5569738216633792	0.0	0.9649187280642595	-0.6640578692278042	0.0	0.9535055494917858	-0.7717197359862848	0.0	0.9985654088210293	-0.7873375617830353	0.0	0.9884261155636113	-0.7844613463127483	0.0	0.946249647657483	-0.7847795152181521	0.0	0.9524033475998578	-0.4003983118457074	0.0	0.9846578623156476	-0.3391686436327336	0.0	0.9926789729090558	-0.38262764930636095	0.0	0.9372103220157053	-0.4195993028989485	0.0	0.898897512044947	-0.48806472742587864	0.0	0.9318623545362362	-0.5459328124301394	0.0	0.9469040808728326	-0.41849599775667634	0.0	0.9275260183537763	-0.48815628348821793	0.0	0.9637832662723353	-0.5434492418266973	0.0
128	4.293842887473461	0.9560407427219026	-0.5640215002255109	0.0	0.9537740195740921	-0.5644206982914879	0.0	0.9930378728043927	-0.6695828065308962	0.0	0.9350502995565715	-0.773435108511357	0.0	0.9755837423873353	-0.7958853684248172	0.0	0.9633271750916325	-0.7980086301634057	0.0	0.9222257163477325	-0.7860034104294812	0.0	0.9574525346459862	-0.5641898370218852	0.0	0.963317810271344	-0.6708218856796132	0.0	0.9523554498528167	-0.7781424513313512	0.0	0.9988669302518316	-0.7953536127517582	0.0	0.9897174462995189	-0.7920692571792705	0.0	0.944362979888346	-0.7915402459290075	0.0	0.9550522592590631	-0.40579022102752604	0.0	0.9849087560151469	-0.34447846478285754	0.0	0.9947390834235732	-0.3870677062151813	0.0	0.9394634590050261	-0.425944545744306	0.0	0.902648264535212	-0.49516919463014275	0.0	0.925659115095459	-0.5581463488255628	0.0	0.9508313401694495	-0.42471023055317575	0.0	0.935012170428099	-0.49546532806236027	0.0	0.9669495662507392	-0.5541048347926152	0.0
